# File created by Blade
# Date/Time:  Tue Jan 27 17:09:01 2015
#---------------------------------------------------------
:version 1.10
:name HOM
:units
  mass 1.0
  length 1.000000
  angle deg
:documentation
     Acclaim Skeleton File
:root
   axis xyz
   order TX TY TZ RX RY RZ
   position 0.000000 0.000000 0.000000
   orientation 0 0 0
:bonedata
   begin
      id 1
      name Spine_dum
      direction 0.000000 1.000000 0.000000
      length 7.539951
      axis 0.0 0.0 0.0 xyz
   end
   begin
      id 2
      name LeftUpLeg_dum
      direction 1.000000 0.000000 0.000000
      length 3.345476
      axis 0.0 0.0 0.0 xyz
   end
   begin
      id 3
      name RightUpLeg_dum
      direction -1.000000 0.000000 0.000000
      length 3.345476
      axis 0.0 0.0 0.0 xyz
   end
   begin
      id 4
      name Spine
      direction 0.000000 1.000000 0.000000
      length 0.000000
      axis 0.0 0.0 0.0 xyz
      dof rx ry rz
   end
   begin
      id 5
      name Spine_dum1
      direction 0.000000 1.000000 0.000000
      length 15.093809
      axis 0.0 0.0 0.0 xyz
   end
   begin
      id 6
      name Spine_dum2
      direction 0.000000 1.000000 0.000000
      length 9.738928
      axis 0.0 0.0 0.0 xyz
   end
   begin
      id 7
      name Spine_dum3
      direction 0.000000 1.000000 0.000000
      length 9.738928
      axis 0.0 0.0 0.0 xyz
   end
   begin
      id 8
      name Head
      direction 0.000000 1.000000 0.000000
      length 4.527550
      axis 0.0 0.0 0.0 xyz
      dof rx ry rz
   end
   begin
      id 9
      name LeftShoulder
      direction 1.000000 0.000000 0.000000
      length 7.084015
      axis 0.0 0.0 -90.0 xyz
      dof rx ry rz
   end
   begin
      id 10
      name LeftArm
      direction 1.000000 0.000000 0.000000
      length 10.259319
      axis 0.0 0.0 -90.0 xyz
      dof rx ry rz
   end
   begin
      id 11
      name LeftForeArm
      direction 1.000000 0.000000 0.000000
      length 9.896984
      axis 0.0 0.0 -90.0 xyz
      dof ry rz rx
   end
   begin
      id 12
      name LeftHand
      direction 0.000000 0.000000 0.000000
      length 0.000000
      axis 0.0 0.0 -90.0 xyz
      dof rx ry rz
   end
   begin
      id 13
      name LeftHand_dum1
      direction 0.000000 0.000000 0.000000
      length 0.000000
      axis 0.0 0.0 -90.0 xyz
   end
   begin
      id 14
      name LeftHand_dum2
      direction 1.000000 0.000000 0.000000
      length 3.937000
      axis 0.0 0.0 -90.0 xyz
   end
   begin
      id 15
      name LeftHandThumb1
      direction 0.000000 0.000000 1.000000
      length 3.937000
      axis 0.0 0.0 -90.0 xyz
      dof rx rz ry
   end
   begin
      id 16
      name RightShoulder
      direction -1.000000 0.000000 0.000000
      length 7.084015
      axis 0.0 0.0 90.0 xyz
      dof rx ry rz
   end
   begin
      id 17
      name RightArm
      direction -1.000000 0.000000 0.000000
      length 10.259319
      axis 0.0 0.0 90.0 xyz
      dof rx ry rz
   end
   begin
      id 18
      name RightForeArm
      direction -1.000000 0.000000 0.000000
      length 9.896984
      axis 0.0 0.0 90.0 xyz
      dof ry rz rx
   end
   begin
      id 19
      name RightHand
      direction 0.000000 0.000000 0.000000
      length 0.000000
      axis 0.0 0.0 90.0 xyz
      dof rx ry rz
   end
   begin
      id 20
      name RightHand_dum1
      direction 0.000000 0.000000 0.000000
      length 0.000000
      axis 0.0 0.0 90.0 xyz
   end
   begin
      id 21
      name RightHand_dum2
      direction -1.000000 0.000000 0.000000
      length 3.937000
      axis 0.0 0.0 90.0 xyz
   end
   begin
      id 22
      name RightHandThumb1
      direction 0.000000 0.000000 1.000000
      length 3.937000
      axis 0.0 0.0 90.0 xyz
      dof rx rz ry
   end
   begin
      id 23
      name LeftUpLeg
      direction 0.000000 -1.000000 0.000000
      length 19.114733
      axis 0.0 0.0 0.0 xyz
      dof rx ry rz
   end
   begin
      id 24
      name LeftLeg
      direction 0.000000 -1.000000 0.000000
      length 16.045604
      axis 0.0 0.0 0.0 xyz
      dof rx ry rz
   end
   begin
      id 25
      name LeftFoot
      direction 0.000000 -0.258819 0.965926
      length 5.543155
      axis 15.0 0.0 0.0 xyz
      dof rx ry rz
   end
   begin
      id 26
      name LeftToeBase
      direction 0.000000 0.000000 1.000000
      length 2.952750
      axis 0.0 0.0 0.0 xyz
      dof rx ry rz
   end
   begin
      id 27
      name RightUpLeg
      direction 0.000000 -1.000000 0.000000
      length 19.114733
      axis 0.0 0.0 0.0 xyz
      dof rx ry rz
   end
   begin
      id 28
      name RightLeg
      direction 0.000000 -1.000000 0.000000
      length 16.045604
      axis 0.0 0.0 0.0 xyz
      dof rx ry rz
   end
   begin
      id 29
      name RightFoot
      direction 0.000000 -0.258819 0.965926
      length 5.543155
      axis 15.0 0.0 0.0 xyz
      dof rx ry rz
   end
   begin
      id 30
      name RightToeBase
      direction 0.000000 0.000000 1.000000
      length 2.952750
      axis 0.0 0.0 0.0 xyz
      dof rx ry rz
   end
:hierarchy
   begin
      root Spine_dum LeftUpLeg_dum RightUpLeg_dum
      Spine_dum Spine
      LeftUpLeg_dum LeftUpLeg
      RightUpLeg_dum RightUpLeg
      Spine Spine_dum1 Spine_dum2 Spine_dum3
      Spine_dum1 Head
      Spine_dum2 LeftShoulder
      Spine_dum3 RightShoulder
      LeftShoulder LeftArm
      LeftArm LeftForeArm
      LeftForeArm LeftHand
      LeftHand LeftHand_dum1 LeftHand_dum2
      LeftHand_dum1 LeftHandThumb1
      RightShoulder RightArm
      RightArm RightForeArm
      RightForeArm RightHand
      RightHand RightHand_dum1 RightHand_dum2
      RightHand_dum1 RightHandThumb1
      LeftUpLeg LeftLeg
      LeftLeg LeftFoot
      LeftFoot LeftToeBase
      RightUpLeg RightLeg
      RightLeg RightFoot
      RightFoot RightToeBase
   end

# File created by Blade
# Date/Time:  Tue Jan 27 17:08:52 2015
# Frame Rate: 120.000 fps
#------------------------------------------------------
:FULLY-SPECIFIED
:DEGREES
540
root 4.205112 37.167919 -1.932945 -17.047527 36.224907 -17.780670
Spine 10.557504 -1.546173 19.797305
Head -4.222163 -10.345134 0.337460
LeftShoulder -0.898631 -8.918326 5.320146
LeftArm 13.143314 7.471671 -58.051042
LeftForeArm 10.486349 -0.000000 107.211398
LeftHand -10.498257 -0.000000 28.590463
LeftHandThumb1 -26.253704 0.000000 33.147579
RightShoulder -3.355081 -18.415879 -0.574107
RightArm 14.671686 -10.842027 61.355416
RightForeArm 190.740545 -0.000000 18.936226
RightHand 2.281748 0.000000 4.339055
RightHandThumb1 -24.326973 -0.000000 -32.862282
LeftUpLeg -4.732020 0.989578 11.067698
LeftLeg 27.670844 -0.000000 -0.000000
LeftFoot -22.364815 -7.260706 -7.061523
LeftToeBase 15.405402 -0.000000 -0.000000
RightUpLeg -76.343653 -4.472367 16.361318
RightLeg 110.862635 -0.000000 -0.000000
RightFoot -1.877777 4.938562 6.183705
RightToeBase 0.876256 -0.000000 -0.000000
541
root 4.215413 37.163772 -1.926976 -17.060662 36.244794 -17.760294
Spine 10.551649 -1.549221 19.758978
Head -4.194732 -10.382523 0.353176
LeftShoulder -0.905566 -8.906477 5.312633
LeftArm 13.178389 7.488953 -58.026581
LeftForeArm 10.464466 0.000000 107.217197
LeftHand -10.492396 -0.000000 28.573887
LeftHandThumb1 -26.253704 0.000000 33.147579
RightShoulder -3.370127 -18.415764 -0.562082
RightArm 14.665171 -10.883279 61.369305
RightForeArm 190.721764 -0.000000 18.875394
RightHand 2.255318 -0.000000 4.326381
RightHandThumb1 -24.326973 -0.000000 -32.862282
LeftUpLeg -4.703355 1.034597 11.045052
LeftLeg 27.685856 -0.000000 -0.000000
LeftFoot -22.395249 -7.285506 -6.997547
LeftToeBase 15.403701 -0.000000 -0.000000
RightUpLeg -76.332990 -4.516177 16.337141
RightLeg 110.827233 -0.000000 -0.000000
RightFoot -1.844156 5.000415 6.198742
RightToeBase 0.801141 -0.000000 -0.000000
542
root 4.224898 37.159807 -1.920367 -17.071953 36.254371 -17.734637
Spine 10.549834 -1.549046 19.712034
Head -4.158413 -10.409043 0.377697
LeftShoulder -0.920515 -8.894071 5.313727
LeftArm 13.200981 7.511284 -58.004012
LeftForeArm 10.470358 0.000000 107.227588
LeftHand -10.474442 -0.000000 28.538791
LeftHandThumb1 -26.253704 0.000000 33.147579
RightShoulder -3.389068 -18.432460 -0.531732
RightArm 14.678800 -10.919151 61.358876
RightForeArm 190.716213 -0.000000 18.828146
RightHand 2.221637 0.000000 4.227702
RightHandThumb1 -24.326973 -0.000000 -32.862282
LeftUpLeg -4.672869 1.064249 11.019851
LeftLeg 27.713081 -0.000000 -0.000000
LeftFoot -22.427835 -7.283965 -6.942501
LeftToeBase 15.391300 -0.000000 -0.000000
RightUpLeg -76.321872 -4.540084 16.312780
RightLeg 110.792690 -0.000000 -0.000000
RightFoot -1.815372 5.068898 6.170334
RightToeBase 0.860968 -0.000000 -0.000000
543
root 4.235619 37.156557 -1.913261 -17.087883 36.256525 -17.713065
Spine 10.548255 -1.539433 19.682628
Head -4.118208 -10.430759 0.377135
LeftShoulder -0.926982 -8.869121 5.294267
LeftArm 13.228489 7.527110 -57.970357
LeftForeArm 10.465019 -0.000000 107.247853
LeftHand -10.487546 -0.000000 28.543813
LeftHandThumb1 -26.253704 0.000000 33.147579
RightShoulder -3.400868 -18.449789 -0.509991
RightArm 14.664578 -10.923333 61.354293
RightForeArm 190.696528 -0.000000 18.827005
RightHand 2.239441 -0.000000 4.161037
RightHandThumb1 -24.326973 -0.000000 -32.862282
LeftUpLeg -4.635644 1.074370 10.998647
LeftLeg 27.738588 -0.000000 -0.000000
LeftFoot -22.442277 -7.294545 -6.901648
LeftToeBase 15.314992 -0.000000 -0.000000
RightUpLeg -76.306688 -4.555072 16.289134
RightLeg 110.760332 -0.000000 -0.000000
RightFoot -1.781028 5.103001 6.075863
RightToeBase 0.739158 -0.000000 -0.000000
544
root 4.246676 37.152816 -1.906305 -17.101112 36.243617 -17.684901
Spine 10.556895 -1.523130 19.652692
Head -4.089109 -10.456193 0.379381
LeftShoulder -0.934785 -8.888366 5.283331
LeftArm 13.196288 7.550014 -57.960232
LeftForeArm 10.466012 0.000000 107.285498
LeftHand -10.486197 -0.000000 28.506912
LeftHandThumb1 -26.253704 0.000000 33.147579
RightShoulder -3.421453 -18.456756 -0.498958
RightArm 14.674487 -10.941151 61.351344
RightForeArm 190.640211 -0.000000 18.800298
RightHand 2.246123 -0.000000 4.084820
RightHandThumb1 -24.326973 -0.000000 -32.862282
LeftUpLeg -4.588766 1.081235 10.970279
LeftLeg 27.765585 -0.000000 -0.000000
LeftFoot -22.421409 -7.228690 -6.604480
LeftToeBase 14.921300 -0.000000 -0.000000
RightUpLeg -76.290561 -4.549638 16.258349
RightLeg 110.731506 -0.000000 -0.000000
RightFoot -1.773074 5.167486 6.044952
RightToeBase 0.807458 -0.000000 -0.000000
545
root 4.258015 37.149553 -1.899452 -17.109702 36.231061 -17.668954
Spine 10.544646 -1.515964 19.638629
Head -4.046013 -10.467489 0.361002
LeftShoulder -0.952688 -8.862296 5.259708
LeftArm 13.198611 7.562309 -57.927630
LeftForeArm 10.466943 -0.000000 107.317851
LeftHand -10.476144 -0.000000 28.520418
LeftHandThumb1 -26.253704 0.000000 33.147579
RightShoulder -3.412120 -18.447520 -0.499757
RightArm 14.615916 -10.876036 61.362858
RightForeArm 190.795291 0.000000 18.808426
RightHand 2.221684 -0.000000 3.733016
RightHandThumb1 -24.326973 -0.000000 -32.862282
LeftUpLeg -4.560135 1.070453 10.951119
LeftLeg 27.785613 -0.000000 -0.000000
LeftFoot -22.493139 -7.212583 -6.769884
LeftToeBase 15.105053 -0.000000 -0.000000
RightUpLeg -76.287064 -4.542187 16.235239
RightLeg 110.696509 -0.000000 -0.000000
RightFoot -1.732908 5.218913 6.076194
RightToeBase 0.747401 -0.000000 -0.000000
